<svg width="70" height="42" viewBox="0 0 70 42" fill="none" xmlns="http://www.w3.org/2000/svg">
<path id="Vector" d="M68.4065 2.81987C68.8873 1.19552 68.4065 0 66.0934 0H58.4395C56.4903 0 55.5936 1.02659 55.1128 2.17013C55.1128 2.17013 51.2144 11.6693 45.7046 17.8289C43.9243 19.6092 43.1056 20.1809 42.131 20.1809C41.6502 20.1809 40.9095 19.6092 40.9095 17.9848V2.81987C40.9095 0.870652 40.3637 0 38.7523 0H26.7192C25.4976 0 24.7699 0.909636 24.7699 1.7543C24.7699 3.59956 27.5248 4.02839 27.8107 9.22631V20.5058C27.8107 22.9748 27.3689 23.4296 26.3943 23.4296C23.7953 23.4296 17.4798 13.8914 13.7373 2.97581C12.9836 0.857658 12.2429 0 10.2807 0H2.62678C0.443654 0 0.00183105 1.02659 0.00183105 2.17013C0.00183105 4.19732 2.60079 14.2683 12.1 27.575C18.4285 36.6584 27.3429 41.5834 35.4517 41.5834C40.3247 41.5834 40.9225 40.4918 40.9225 38.6076C40.9225 29.927 40.4807 29.1084 42.9237 29.1084C44.0542 29.1084 46.0034 29.6801 50.5516 34.0594C55.7495 39.2573 56.6072 41.5834 59.518 41.5834H67.172C69.3551 41.5834 70.4597 40.4918 69.8229 38.3347C68.3675 33.7995 58.5304 24.4692 58.0886 23.8455C56.9581 22.3901 57.2829 21.7403 58.0886 20.4408C58.1016 20.4278 67.4449 7.27709 68.4065 2.81987Z" fill="white"/>
</svg>
